<svg aria-hidden="true" style="position: absolute; width: 0; height: 0; overflow: hidden;" version="1.1" xmlns="http://www.w3.org/2000/svg" xmlns:xlink="http://www.w3.org/1999/xlink">
<defs>

<symbol id="arrow-up" viewBox="0 0 20 20">
    <path d="M15 12.5L10 7.5L5 12.5"  stroke-width="2"/>
</symbol>

<symbol id="arrow-down" viewBox="0 0 20 20">
    <path d="M15 7.5L10 12.5L5 7.5" stroke-width="2"/>
</symbol>


<symbol id="icon-brush" viewBox="0 0 24 24">
    <path d="M12.7778 15L9 11.2222" stroke="#FAFAFA" stroke-width="2" stroke-linecap="round" stroke-linejoin="round"/>
    <path d="M2 22C4 22 6.60801 22.3417 7.97485 20.9749C9.34168 19.608 9.34168 17.392 7.97485 16.0251C6.60801 14.6583 4.39194 14.6583 3.0251 16.0251C1.65827 17.392 3.0251 20 2 22Z" stroke="#FAFAFA" stroke-width="2" stroke-linecap="round" stroke-linejoin="round"/>
    <path d="M7.99995 16C7.50853 15.5086 7.26283 15.2629 7.12391 15.0056C6.79079 14.3885 6.80514 13.6421 7.16173 13.0384C7.31043 12.7866 7.5654 12.5505 8.07534 12.0783L17.9434 2.94124C18.8126 2.13645 20.1624 2.1624 20.9999 3C21.8375 3.83759 21.8635 5.18737 21.0587 6.05654L11.9216 15.9246C11.4494 16.4345 11.2134 16.6895 10.9616 16.8382C10.3578 17.1948 9.6114 17.2091 8.99438 16.876C8.73707 16.7371 8.49136 16.4914 7.99995 16Z" stroke="#FAFAFA" stroke-width="2" stroke-linecap="round" stroke-linejoin="round"/>
</symbol>

<symbol id="icon-message" viewBox="0 0 24 24">
    <path d="M6.09436 11.2288C6.03221 10.8282 5.99996 10.4179 5.99996 10C5.99996 5.58172 9.60525 2 14.0526 2C18.4999 2 22.1052 5.58172 22.1052 10C22.1052 10.9981 21.9213 11.9535 21.5852 12.8345C21.5154 13.0175 21.4804 13.109 21.4646 13.1804C21.4489 13.2512 21.4428 13.301 21.4411 13.3735C21.4394 13.4466 21.4493 13.5272 21.4692 13.6883L21.8717 16.9585C21.9153 17.3125 21.9371 17.4895 21.8782 17.6182C21.8266 17.731 21.735 17.8205 21.6211 17.8695C21.4911 17.9254 21.3146 17.8995 20.9617 17.8478L17.7765 17.3809C17.6101 17.3565 17.527 17.3443 17.4512 17.3448C17.3763 17.3452 17.3245 17.3507 17.2511 17.3661C17.177 17.3817 17.0823 17.4172 16.893 17.4881C16.0097 17.819 15.0524 18 14.0526 18C13.6344 18 13.2237 17.9683 12.8227 17.9073M7.63158 22C10.5965 22 13 19.5376 13 16.5C13 13.4624 10.5965 11 7.63158 11C4.66668 11 2.26316 13.4624 2.26316 16.5C2.26316 17.1106 2.36028 17.6979 2.53955 18.2467C2.61533 18.4787 2.65322 18.5947 2.66566 18.6739C2.67864 18.7567 2.68091 18.8031 2.67608 18.8867C2.67145 18.9668 2.65141 19.0573 2.61134 19.2383L2 22L4.9948 21.591C5.15827 21.5687 5.24 21.5575 5.31137 21.558C5.38652 21.5585 5.42641 21.5626 5.50011 21.5773C5.5701 21.5912 5.67416 21.6279 5.88227 21.7014C6.43059 21.8949 7.01911 22 7.63158 22Z" stroke="#FAFAFA" stroke-width="2" stroke-linecap="round" stroke-linejoin="round"/>
</symbol>

<symbol id="icon-hourglass" viewBox="0 0 24 24">
    <path d="M18.1626 2H5.83744C5.37494 2 5 2.37494 5 2.83744C5 5.50268 6.05876 8.05876 7.94337 9.94337L9.16256 11.1626C9.28363 11.2836 9.34417 11.3442 9.3875 11.4023C9.65188 11.7569 9.65188 12.2431 9.3875 12.5977C9.34417 12.6558 9.28363 12.7164 9.16256 12.8374L7.94337 14.0566C6.05876 15.9412 5 18.4973 5 21.1626C5 21.6251 5.37494 22 5.83744 22H18.1626C18.6251 22 19 21.6251 19 21.1626C19 18.4973 17.9412 15.9412 16.0566 14.0566L14.8374 12.8374C14.7164 12.7164 14.6558 12.6558 14.6125 12.5977C14.3481 12.2431 14.3481 11.7569 14.6125 11.4023C14.6558 11.3442 14.7164 11.2836 14.8374 11.1626L16.0566 9.94337C17.9412 8.05876 19 5.50268 19 2.83744C19 2.37494 18.6251 2 18.1626 2Z" stroke="#FAFAFA" stroke-width="2" stroke-linecap="round" stroke-linejoin="round"/>
</symbol>

<symbol id="icon-user" viewBox="0 0 24 24">
    <path d="M20 21C20 19.6044 20 18.9067 19.8278 18.3389C19.44 17.0605 18.4395 16.06 17.1611 15.6722C16.5933 15.5 15.8956 15.5 14.5 15.5H9.5C8.10444 15.5 7.40665 15.5 6.83886 15.6722C5.56045 16.06 4.56004 17.0605 4.17224 18.3389C4 18.9067 4 19.6044 4 21" stroke="#FAFAFA" stroke-width="2" stroke-linecap="round" stroke-linejoin="round"/>
    <path d="M12 12C14.4853 12 16.5 9.98528 16.5 7.5C16.5 5.01472 14.4853 3 12 3C9.51472 3 7.5 5.01472 7.5 7.5C7.5 9.98528 9.51472 12 12 12Z" stroke="#FAFAFA" stroke-width="2" stroke-linecap="round" stroke-linejoin="round"/>
</symbol>

<symbol id="favicon-jefferson" viewBox="0 0 34 17">
    <path d="M29.7194 8.05263L29.8437 5.43035L27.5525 6.8568L26.842 5.67806L29.2754 4.48223L26.842 3.2864L27.5525 2.09057L29.8437 3.51702L29.7194 0.894737H31.1226L30.9982 3.51702L33.2895 2.09057L33.9999 3.2864L31.5666 4.48223L33.9999 5.67806L33.2895 6.8568L30.9982 5.43035L31.1226 8.05263H29.7194Z" fill="#FAFAFA"/>
    <path d="M24.5506 3.80263V5.3082H18.7896V3.80263H24.5506ZM20.3599 13.4211V2.68421C20.3599 2.08772 20.4999 1.5916 20.7799 1.19585C21.066 0.794366 21.4372 0.49612 21.8937 0.301113C22.3563 0.100371 22.8524 0 23.3819 0C23.7897 0 24.1367 0.0315452 24.4227 0.0946356C24.7088 0.157726 24.9188 0.212213 25.0527 0.258097L24.578 1.77227C24.4867 1.74359 24.368 1.71204 24.2219 1.67763C24.0819 1.64322 23.9054 1.62601 23.6923 1.62601C23.2115 1.62601 22.8646 1.74072 22.6515 1.97014C22.4385 2.19383 22.332 2.52075 22.332 2.95091V13.4211H20.3599Z" fill="#FAFAFA"/>
    <path d="M19.1822 3.80263V5.3082H13.4211V3.80263H19.1822ZM14.9915 13.4211V2.68421C14.9915 2.08772 15.1315 1.5916 15.4115 1.19585C15.6975 0.794366 16.0688 0.49612 16.5253 0.301113C16.9879 0.100371 17.484 0 18.0135 0C18.4213 0 18.7683 0.0315452 19.0543 0.0946356C19.3404 0.157726 19.5504 0.212213 19.6843 0.258097L19.2095 1.77227C19.1182 1.74359 18.9996 1.71204 18.8535 1.67763C18.7135 1.64322 18.537 1.62601 18.3239 1.62601C17.8431 1.62601 17.4962 1.74072 17.2831 1.97014C17.0701 2.19383 16.9636 2.52075 16.9636 2.95091V13.4211H14.9915Z" fill="#FAFAFA"/>
    <path d="M9.18603 13.4211C8.21939 13.4211 7.38241 13.2194 6.67511 12.816C5.96781 12.4127 5.4226 11.8446 5.03947 11.1118C4.66225 10.3733 4.47363 9.51261 4.47363 8.52982C4.47363 7.55271 4.6593 6.69206 5.03063 5.94787C5.40786 5.20368 5.93539 4.62423 6.61322 4.20952C7.29695 3.78914 8.09855 3.57895 9.01805 3.57895C9.57799 3.57895 10.1203 3.667 10.6448 3.84311C11.1694 4.01921 11.641 4.29758 12.0594 4.6782C12.4779 5.05881 12.808 5.55305 13.0497 6.1609C13.2972 6.76875 13.421 7.50159 13.421 8.3594V9.02406H5.56111V7.63509H12.4308L11.5378 8.09524C11.5378 7.51011 11.4435 6.99315 11.2549 6.54436C11.0663 6.09557 10.7834 5.7462 10.4061 5.49624C10.0348 5.2406 9.5721 5.11278 9.01805 5.11278C8.46399 5.11278 7.98951 5.2406 7.5946 5.49624C7.20559 5.75188 6.90793 6.08989 6.70163 6.51028C6.49534 6.93066 6.39219 7.39081 6.39219 7.89073V8.83659C6.39219 9.48989 6.51007 10.0438 6.74584 10.4982C6.98161 10.9527 7.30873 11.2992 7.72722 11.5378C8.1516 11.7764 8.64377 11.8957 9.20371 11.8957C9.56915 11.8957 9.89923 11.8446 10.1939 11.7424C10.4945 11.6401 10.7539 11.4867 10.972 11.2822C11.1901 11.0777 11.3551 10.8249 11.4671 10.5238L13.2884 10.8561C13.141 11.3674 12.8817 11.8162 12.5104 12.2025C12.139 12.5888 11.6704 12.8899 11.1046 13.1058C10.5446 13.316 9.90512 13.4211 9.18603 13.4211Z" fill="#FAFAFA"/>
    <path d="M1.52903 3.72496H3.34371V14.0183C3.34931 14.6636 3.2373 15.2081 3.00766 15.6518C2.77802 16.0954 2.44197 16.4296 1.99951 16.6543C1.55704 16.8848 1.01376 17 0.369657 17H0V15.3838H0.294045C0.730912 15.3838 1.04456 15.2657 1.23499 15.0295C1.42542 14.7933 1.52343 14.4533 1.52903 14.0097V3.72496ZM2.42797 2.23843C2.10872 2.23843 1.83708 2.12896 1.61305 1.91002C1.38901 1.69107 1.277 1.42891 1.277 1.12354C1.277 0.812405 1.38901 0.547365 1.61305 0.328419C1.83708 0.109473 2.10872 0 2.42797 0C2.74162 0 3.01046 0.109473 3.23449 0.328419C3.46413 0.547365 3.57895 0.812405 3.57895 1.12354C3.57895 1.42891 3.46413 1.69107 3.23449 1.91002C3.01046 2.12896 2.74162 2.23843 2.42797 2.23843Z" fill="#FAFAFA"/>
</symbol>

<symbol id="close-x" viewBox="0 0 24 24">
    <path d="M18 6L6 18" stroke-width="2" stroke-linecap="round" stroke-linejoin="round"/>
    <path d="M6 6L18 18" stroke-width="2" stroke-linecap="round" stroke-linejoin="round"/>
</symbol>

<symbol id="header-close-btn-icon" viewBox="0 0 32 32">
<path fill="none" stroke="#fafafa" style="stroke: var(--color1, #fafafa)" stroke-linejoin="round" stroke-linecap="round" stroke-miterlimit="4" stroke-width="2.2857" d="M24 8l-16 16"></path>
<path fill="none" stroke="#fafafa" style="stroke: var(--color1, #fafafa)" stroke-linejoin="round" stroke-linecap="round" stroke-miterlimit="4" stroke-width="2.2857" d="M8 8l16 16"></path>
</symbol>

<symbol id="burger-btn-icon" viewBox="0 0 28 28">
    <path fill="none" stroke="#fafafa" style="stroke: var(--color1, #fafafa)" stroke-linejoin="round" stroke-linecap="round" stroke-miterlimit="4" stroke-width="2.2857" d="M4 11.333h24M4 20.667h24"></path>
</symbol>

<symbol id="icon-arrow" viewBox="0 0 40 40">
  <path d="M6.66699 20H33.3336" stroke-width="2" stroke-linecap="round" stroke-linejoin="round" />
  <path d="M23.333 10L33.333 20L23.333 30"  stroke-width="2" stroke-linecap="round" stroke-linejoin="round" />
</symbol>

<symbol id="icon-arrow-swiper-1" viewBox="0 0 32 32" fill="none">
    <path stroke-linejoin="miter" stroke-linecap="butt" stroke-miterlimit="4" stroke-width="0.4706" d="M16 31.765c-8.707 0-15.765-7.058-15.765-15.765s7.058-15.765 15.765-15.765c8.707 0 15.765 7.058 15.765 15.765s-7.058 15.765-15.765 15.765z"></path>
    <path stroke-linejoin="round" stroke-linecap="round" stroke-miterlimit="4" stroke-width="0.9412" d="M21.020 16h-10.040"></path>
    <path stroke-linejoin="round" stroke-linecap="round" stroke-miterlimit="4" stroke-width="0.9412" d="M14.745 19.765l-3.765-3.765 3.765-3.765"></path>
</symbol>

<symbol id="logo-jefferson" viewBox="0 0 84 19">
    <path d="M79.2159 9L79.3548 6.06921L76.794 7.66348L76 6.34606L78.7196 5.00955L76 3.67303L76.794 2.33652L79.3548 3.93079L79.2159 1H80.7841L80.6452 3.93079L83.206 2.33652L84 3.67303L81.2804 5.00955L84 6.34606L83.206 7.66348L80.6452 6.06921L80.7841 9H79.2159Z" fill="#FAFAFA"/>
    <path d="M67.0858 8.55742V15H65V4.13604H67.0279V5.92403H67.1727C67.4174 5.33451 67.8004 4.86808 68.3219 4.52473C68.8433 4.17491 69.5129 4 70.3305 4C71.0644 4 71.7049 4.15548 72.2521 4.46643C72.8058 4.77091 73.2339 5.22762 73.5365 5.83657C73.8455 6.44552 74 7.20024 74 8.10071V15H71.9142V8.35336C71.9142 7.56949 71.7082 6.95406 71.2961 6.50707C70.8841 6.05359 70.324 5.82686 69.6159 5.82686C69.133 5.82686 68.6985 5.93698 68.3122 6.15724C67.9324 6.37102 67.633 6.67874 67.4142 7.08039C67.1953 7.48204 67.0858 7.97438 67.0858 8.55742Z" fill="#FAFAFA"/>
    <path d="M58.9952 15C57.9917 15 57.1128 14.7714 56.3586 14.3143C55.6107 13.8571 55.0291 13.2159 54.6136 12.3905C54.2045 11.5651 54 10.6063 54 9.51429C54 8.40952 54.2045 7.44444 54.6136 6.61905C55.0291 5.7873 55.6107 5.14286 56.3586 4.68571C57.1128 4.22857 57.9917 4 58.9952 4C60.0051 4 60.884 4.22857 61.6318 4.68571C62.3797 5.14286 62.9613 5.7873 63.3768 6.61905C63.7923 7.44444 64 8.40952 64 9.51429C64 10.6063 63.7923 11.5651 63.3768 12.3905C62.9613 13.2159 62.3797 13.8571 61.6318 14.3143C60.884 14.7714 60.0051 15 58.9952 15ZM58.9952 13.2571C59.6536 13.2571 60.1969 13.0857 60.6251 12.7429C61.0534 12.4 61.3698 11.946 61.5743 11.381C61.7852 10.8095 61.8907 10.1873 61.8907 9.51429C61.8907 8.82857 61.7852 8.2 61.5743 7.62857C61.3698 7.05714 61.0534 6.6 60.6251 6.25714C60.1969 5.91429 59.6536 5.74286 58.9952 5.74286C58.3432 5.74286 57.8031 5.91429 57.3749 6.25714C56.953 6.6 56.6366 7.05714 56.4257 7.62857C56.2148 8.2 56.1093 8.82857 56.1093 9.51429C56.1093 10.1873 56.2148 10.8095 56.4257 11.381C56.6366 11.946 56.953 12.4 57.3749 12.7429C57.8031 13.0857 58.3432 13.2571 58.9952 13.2571Z" fill="#FAFAFA"/>
    <path d="M52.7819 6.74286L50.8293 7.06667C50.7037 6.71111 50.4692 6.38413 50.1256 6.08571C49.7885 5.7873 49.283 5.6381 48.609 5.6381C48.0011 5.6381 47.4923 5.77143 47.0826 6.0381C46.6795 6.29841 46.478 6.63175 46.478 7.0381C46.478 7.39365 46.6134 7.68254 46.8844 7.90476C47.1619 8.12698 47.6013 8.30476 48.2026 8.4381L49.9769 8.81905C50.9879 9.04127 51.7445 9.39048 52.2467 9.86667C52.7489 10.3429 53 10.9524 53 11.6952C53 12.3365 52.8084 12.9079 52.4251 13.4095C52.0419 13.9048 51.5099 14.2952 50.8293 14.581C50.1487 14.8603 49.3623 15 48.4703 15C47.228 15 46.217 14.7429 45.4372 14.2286C44.6575 13.7143 44.1784 12.9905 44 12.0571L46.0716 11.7524C46.2037 12.273 46.4714 12.6667 46.8744 12.9333C47.2841 13.2 47.8128 13.3333 48.4604 13.3333C49.1608 13.3333 49.7225 13.1905 50.1454 12.9048C50.5749 12.619 50.7896 12.273 50.7896 11.8667C50.7896 11.1937 50.2676 10.7397 49.2236 10.5048L47.3502 10.1048C46.3128 9.87619 45.5463 9.51746 45.0507 9.02857C44.5617 8.53333 44.3172 7.91111 44.3172 7.1619C44.3172 6.53333 44.4989 5.98095 44.8623 5.50476C45.2324 5.02857 45.7379 4.66032 46.3789 4.4C47.0264 4.13333 47.7632 4 48.5892 4C49.7919 4 50.7335 4.25079 51.4141 4.75238C52.1013 5.25397 52.5573 5.91746 52.7819 6.74286Z" fill="#FAFAFA"/>
    <path d="M38 15V4.1552H40.1005V5.89153H40.2211C40.4288 5.30952 40.7906 4.85038 41.3065 4.51411C41.8291 4.17137 42.4188 4 43.0754 4C43.2094 4 43.3668 4.00647 43.5477 4.0194C43.7353 4.02587 43.8861 4.03557 44 4.0485V6.06614C43.9129 6.04027 43.7554 6.0144 43.5276 5.98854C43.3065 5.96267 43.0821 5.94974 42.8543 5.94974C42.3384 5.94974 41.876 6.05644 41.4673 6.26984C41.0653 6.47678 40.7471 6.76455 40.5126 7.13316C40.2848 7.4953 40.1709 7.91564 40.1709 8.39418V15H38Z" fill="#FAFAFA"/>
    <path d="M32.2668 15C31.1864 15 30.251 14.7746 29.4605 14.3238C28.67 13.873 28.0606 13.2381 27.6324 12.419C27.2108 11.5937 27 10.6317 27 9.53333C27 8.44127 27.2075 7.47937 27.6225 6.64762C28.0441 5.81587 28.6337 5.16825 29.3913 4.70476C30.1555 4.23492 31.0514 4 32.0791 4C32.7049 4 33.3109 4.09841 33.8972 4.29524C34.4835 4.49206 35.0105 4.80317 35.4783 5.22857C35.946 5.65397 36.3149 6.20635 36.585 6.88571C36.8617 7.56508 37 8.38413 37 9.34286V10.0857H28.2154V8.53333H35.8933L34.8953 9.04762C34.8953 8.39365 34.7899 7.81587 34.5791 7.31429C34.3682 6.8127 34.052 6.42222 33.6304 6.14286C33.2154 5.85714 32.6983 5.71429 32.0791 5.71429C31.4598 5.71429 30.9295 5.85714 30.4881 6.14286C30.0534 6.42857 29.7207 6.80635 29.4901 7.27619C29.2596 7.74603 29.1443 8.26032 29.1443 8.81905V9.87619C29.1443 10.6063 29.276 11.2254 29.5395 11.7333C29.803 12.2413 30.1686 12.6286 30.6364 12.8952C31.1107 13.1619 31.6607 13.2952 32.2866 13.2952C32.695 13.2952 33.0639 13.2381 33.3933 13.1238C33.7292 13.0095 34.0191 12.8381 34.2628 12.6095C34.5066 12.381 34.691 12.0984 34.8162 11.7619L36.8518 12.1333C36.6871 12.7048 36.3972 13.2063 35.9822 13.6381C35.5672 14.0698 35.0435 14.4063 34.4111 14.6476C33.7852 14.8825 33.0705 15 32.2668 15Z" fill="#FAFAFA"/>
    <path d="M27.4388 4.25V5.93269H21V4.25H27.4388ZM22.7551 15V3C22.7551 2.33333 22.9116 1.77885 23.2245 1.33654C23.5442 0.887821 23.9592 0.554487 24.4694 0.336538C24.9864 0.112179 25.5408 0 26.1327 0C26.5884 0 26.9762 0.0352564 27.2959 0.105769C27.6156 0.176282 27.8503 0.23718 28 0.288462L27.4694 1.98077C27.3673 1.94872 27.2347 1.91346 27.0714 1.875C26.915 1.83654 26.7177 1.81731 26.4796 1.81731C25.9422 1.81731 25.5544 1.94551 25.3163 2.20192C25.0782 2.45192 24.9592 2.81731 24.9592 3.29808V15H22.7551Z" fill="#FAFAFA"/>
    <path d="M21.4388 4.25V5.93269H15V4.25H21.4388ZM16.7551 15V3C16.7551 2.33333 16.9116 1.77885 17.2245 1.33654C17.5442 0.887821 17.9592 0.554487 18.4694 0.336538C18.9864 0.112179 19.5408 0 20.1327 0C20.5884 0 20.9762 0.0352564 21.2959 0.105769C21.6156 0.176282 21.8503 0.23718 22 0.288462L21.4694 1.98077C21.3673 1.94872 21.2347 1.91346 21.0714 1.875C20.915 1.83654 20.7177 1.81731 20.4796 1.81731C19.9422 1.81731 19.5544 1.94551 19.3163 2.20192C19.0782 2.45192 18.9592 2.81731 18.9592 3.29808V15H16.7551Z" fill="#FAFAFA"/>
    <path d="M10.2668 15C9.18643 15 8.25099 14.7746 7.46047 14.3238C6.66996 13.873 6.06061 13.2381 5.63241 12.419C5.2108 11.5937 5 10.6317 5 9.53333C5 8.44127 5.20751 7.47937 5.62253 6.64762C6.04414 5.81587 6.63373 5.16825 7.3913 4.70476C8.15547 4.23492 9.05138 4 10.0791 4C10.7049 4 11.3109 4.09841 11.8972 4.29524C12.4835 4.49206 13.0105 4.80317 13.4783 5.22857C13.946 5.65397 14.3149 6.20635 14.585 6.88571C14.8617 7.56508 15 8.38413 15 9.34286V10.0857H6.21542V8.53333H13.8933L12.8953 9.04762C12.8953 8.39365 12.7899 7.81587 12.5791 7.31429C12.3682 6.8127 12.052 6.42222 11.6304 6.14286C11.2154 5.85714 10.6983 5.71429 10.0791 5.71429C9.45982 5.71429 8.92951 5.85714 8.48814 6.14286C8.05336 6.42857 7.72069 6.80635 7.49012 7.27619C7.25955 7.74603 7.14427 8.26032 7.14427 8.81905V9.87619C7.14427 10.6063 7.27602 11.2254 7.53953 11.7333C7.80303 12.2413 8.16864 12.6286 8.63636 12.8952C9.11067 13.1619 9.66074 13.2952 10.2866 13.2952C10.695 13.2952 11.0639 13.2381 11.3933 13.1238C11.7292 13.0095 12.0191 12.8381 12.2628 12.6095C12.5066 12.381 12.691 12.0984 12.8162 11.7619L14.8518 12.1333C14.6871 12.7048 14.3972 13.2063 13.9822 13.6381C13.5672 14.0698 13.0435 14.4063 12.4111 14.6476C11.7852 14.8825 11.0705 15 10.2668 15Z" fill="#FAFAFA"/>
    <path d="M1.70892 4.16319H3.73709V15.6675C3.74335 16.3887 3.61815 16.9973 3.3615 17.4931C3.10485 17.989 2.72926 18.3625 2.23474 18.6136C1.74022 18.8712 1.13302 19 0.413146 19H0V17.1937H0.328638C0.816901 17.1937 1.16745 17.0617 1.38028 16.7977C1.59311 16.5336 1.70266 16.1537 1.70892 15.6579V4.16319ZM2.71361 2.50178C2.35681 2.50178 2.05321 2.37943 1.80282 2.13472C1.55243 1.89002 1.42723 1.59702 1.42723 1.25572C1.42723 0.907982 1.55243 0.611761 1.80282 0.367056C2.05321 0.122352 2.35681 0 2.71361 0C3.06416 0 3.36463 0.122352 3.61502 0.367056C3.87167 0.611761 4 0.907982 4 1.25572C4 1.59702 3.87167 1.89002 3.61502 2.13472C3.36463 2.37943 3.06416 2.50178 2.71361 2.50178Z" fill="#FAFAFA"/>
</symbol>

<symbol id="icon-jefferson" viewBox="0 0 141 32">
    <path fill="#fafafa" style="fill: var(--color1, #fafafa)" d="M133.416 15.158l0.234-4.935-4.313 2.683-1.337-2.218 4.581-2.25-4.581-2.252 1.337-2.25 4.312 2.685-0.231-4.936h2.641l-0.234 4.935 4.313-2.683 1.336 2.25-4.581 2.252 4.581 2.25-1.337 2.218-4.312-2.685 0.231 4.936h-2.641zM112.987 14.412v10.851h-3.513v-18.297h3.416v3.011h0.244c0.403-0.982 1.071-1.787 1.916-2.346l0.019-0.012c0.877-0.589 2.004-0.883 3.382-0.883 1.236 0 2.316 0.261 3.237 0.785 0.933 0.514 1.654 1.283 2.164 2.307 0.519 1.027 0.78 2.297 0.78 3.815v11.619h-3.513v-11.195c0-1.32-0.347-2.356-1.041-3.109-0.694-0.763-1.637-1.145-2.829-1.145-0.813 0-1.546 0.185-2.196 0.556-0.645 0.369-1.16 0.898-1.502 1.534l-0.010 0.021c-0.369 0.677-0.552 1.506-0.552 2.488zM99.36 25.263c-1.689 0-3.17-0.386-4.44-1.155-1.26-0.77-2.24-1.849-2.939-3.24-0.691-1.389-1.034-3.005-1.034-4.844 0-1.859 0.345-3.486 1.034-4.876 0.699-1.401 1.679-2.486 2.939-3.256 1.27-0.77 2.75-1.155 4.44-1.155 1.701 0 3.181 0.386 4.441 1.155s2.24 1.854 2.939 3.256c0.699 1.389 1.049 3.015 1.049 4.876 0 1.839-0.35 3.454-1.049 4.845-0.701 1.389-1.679 2.469-2.939 3.239s-2.74 1.155-4.441 1.155zM99.36 22.328c1.11 0 2.024-0.288 2.745-0.866s1.255-1.342 1.6-2.294c0.354-0.963 0.532-2.011 0.532-3.144 0-1.154-0.179-2.213-0.534-3.175-0.344-0.963-0.876-1.733-1.598-2.311-0.721-0.578-1.635-0.866-2.745-0.866-1.098 0-2.008 0.288-2.728 0.866-0.711 0.578-1.243 1.347-1.6 2.311-0.354 0.962-0.532 2.021-0.532 3.175 0 1.133 0.179 2.183 0.534 3.144 0.354 0.952 0.888 1.716 1.598 2.294 0.721 0.578 1.63 0.866 2.728 0.866zM88.896 11.357l-3.289 0.546c-0.211-0.6-0.606-1.15-1.184-1.652-0.568-0.504-1.42-0.755-2.555-0.755-1.024 0-1.881 0.224-2.57 0.674-0.68 0.438-1.019 1-1.019 1.684 0 0.6 0.227 1.086 0.684 1.46 0.468 0.374 1.208 0.674 2.221 0.898l2.988 0.642c1.701 0.374 2.978 0.962 3.823 1.765 0.845 0.802 1.268 1.827 1.268 3.079 0 1.080-0.323 2.043-0.968 2.887-0.645 0.835-1.541 1.492-2.688 1.974-1.145 0.472-2.471 0.706-3.973 0.706-2.092 0-3.795-0.433-5.108-1.299-1.314-0.867-2.12-2.085-2.42-3.658l3.49-0.514c0.222 0.877 0.674 1.541 1.351 1.989 0.691 0.45 1.581 0.674 2.671 0.674 1.179 0 2.125-0.241 2.838-0.721 0.724-0.482 1.086-1.064 1.086-1.748 0-1.133-0.879-1.898-2.637-2.294l-3.156-0.674c-1.747-0.386-3.038-0.99-3.874-1.812-0.822-0.835-1.235-1.883-1.235-3.144 0-1.059 0.307-1.989 0.918-2.791 0.623-0.802 1.475-1.423 2.555-1.861 1.090-0.45 2.331-0.674 3.722-0.674 2.026 0 3.613 0.421 4.758 1.267 1.116 0.806 1.934 1.964 2.294 3.31l0.010 0.042zM64 25.263v-18.265h3.537v2.925h0.204c0.344-0.975 0.985-1.775 1.811-2.31l0.018-0.011c0.819-0.543 1.826-0.866 2.907-0.866 0.025 0 0.050 0 0.074 0l-0.004-0c0.226 0 0.492 0.010 0.797 0.034 0.315 0.010 0.569 0.027 0.761 0.049v3.397c-0.226-0.057-0.497-0.103-0.774-0.128l-0.021-0.002c-0.34-0.043-0.735-0.067-1.135-0.067h-0.001c-0.869 0-1.647 0.18-2.336 0.539-0.677 0.35-1.213 0.835-1.607 1.455-0.362 0.581-0.577 1.287-0.577 2.042 0 0.029 0 0.057 0.001 0.086l-0-0.004v11.126h-3.656zM54.344 25.263c-1.819 0-3.395-0.379-4.728-1.139-1.321-0.757-2.373-1.85-3.058-3.166l-0.020-0.043c-0.709-1.389-1.064-3.010-1.064-4.861 0-1.839 0.349-3.459 1.048-4.859 0.682-1.366 1.7-2.477 2.947-3.253l0.034-0.020c1.287-0.792 2.796-1.187 4.525-1.187 1.054 0 2.075 0.165 3.062 0.497 1.033 0.353 1.921 0.89 2.668 1.578l-0.005-0.005c0.788 0.716 1.41 1.645 1.864 2.791 0.467 1.145 0.699 2.523 0.699 4.138v1.251h-14.796v-2.616h12.931l-1.681 0.867c0-1.101-0.177-2.075-0.532-2.92-0.334-0.818-0.885-1.49-1.583-1.963l-0.015-0.010c-0.699-0.482-1.57-0.723-2.611-0.723-1.044 0-1.937 0.241-2.681 0.723-0.721 0.474-1.294 1.12-1.668 1.88l-0.012 0.028c-0.387 0.792-0.583 1.657-0.583 2.599v1.78c0 1.229 0.222 2.274 0.667 3.128 0.443 0.856 1.059 1.509 1.846 1.957 0.8 0.45 1.726 0.674 2.779 0.674 0.689 0 1.31-0.096 1.864-0.288 0.566-0.194 1.054-0.482 1.465-0.866 0.411-0.386 0.721-0.862 0.931-1.428l3.429 0.625c-0.289 0.992-0.795 1.845-1.467 2.536l0.001-0.001c-0.699 0.728-1.58 1.293-2.644 1.701-1.056 0.396-2.259 0.593-3.613 0.593zM46.213 7.158v2.835h-10.845v-2.835h10.845zM38.324 25.263v-20.211c0-1.123 0.264-2.056 0.792-2.801 0.539-0.758 1.236-1.319 2.095-1.684 0.812-0.359 1.758-0.568 2.753-0.568 0.017 0 0.035 0 0.052 0h-0.003c0.766 0 1.42 0.059 1.959 0.179 0.539 0.118 0.933 0.221 1.186 0.307l-0.893 2.851c-0.152-0.050-0.377-0.112-0.605-0.165l-0.067-0.013c-0.274-0.063-0.589-0.099-0.912-0.099-0.029 0-0.059 0-0.088 0.001l0.004-0c-0.906 0-1.56 0.217-1.96 0.648-0.401 0.421-0.601 1.036-0.601 1.846v19.709h-3.712z"></path>
    <path fill="#fafafa" style="fill: var(--color1, #fafafa)" d="M36.108 7.158v2.835h-10.845v-2.835h10.845zM28.219 25.263v-20.211c0-1.123 0.264-2.056 0.792-2.801 0.539-0.758 1.236-1.319 2.095-1.684 0.812-0.359 1.758-0.568 2.753-0.568 0.017 0 0.035 0 0.052 0h-0.003c0.766 0 1.42 0.059 1.959 0.179 0.539 0.118 0.933 0.221 1.186 0.307l-0.893 2.851c-0.152-0.050-0.377-0.112-0.605-0.165l-0.067-0.013c-0.274-0.063-0.589-0.099-0.912-0.099-0.029 0-0.059 0-0.088 0.001l0.004-0c-0.906 0-1.56 0.217-1.96 0.648-0.401 0.421-0.601 1.036-0.601 1.846v19.709h-3.712zM17.292 25.263c-1.819 0-3.395-0.379-4.728-1.139-1.321-0.757-2.373-1.85-3.058-3.166l-0.020-0.043c-0.709-1.389-1.064-3.010-1.064-4.861 0-1.839 0.35-3.459 1.049-4.859 0.681-1.366 1.697-2.477 2.942-3.253l0.034-0.020c1.288-0.792 2.797-1.187 4.531-1.187 1.054 0 2.075 0.165 3.062 0.497 1.033 0.353 1.921 0.89 2.668 1.578l-0.005-0.005c0.788 0.716 1.41 1.645 1.864 2.791 0.467 1.145 0.699 2.523 0.699 4.138v1.251h-14.797v-2.616h12.931l-1.681 0.867c0-1.101-0.177-2.075-0.532-2.92-0.334-0.818-0.885-1.49-1.583-1.963l-0.015-0.010c-0.699-0.482-1.57-0.723-2.611-0.723-1.044 0-1.937 0.241-2.681 0.723-0.721 0.474-1.294 1.12-1.668 1.88l-0.012 0.028c-0.387 0.792-0.583 1.657-0.583 2.599v1.78c0 1.229 0.222 2.274 0.667 3.128 0.443 0.856 1.059 1.509 1.846 1.957 0.8 0.45 1.726 0.674 2.779 0.674 0.689 0 1.31-0.096 1.864-0.288 0.566-0.194 1.054-0.482 1.465-0.866 0.411-0.386 0.721-0.862 0.931-1.428l3.429 0.625c-0.289 0.992-0.795 1.845-1.467 2.536l0.001-0.001c-0.699 0.728-1.58 1.293-2.644 1.701-1.056 0.396-2.26 0.593-3.613 0.593zM2.878 7.011h3.416v19.377c0.010 1.213-0.2 2.24-0.633 3.074-0.421 0.819-1.074 1.469-1.872 1.875l-0.024 0.011c-0.834 0.436-1.856 0.652-3.069 0.652h-0.696v-3.042h0.554c0.822 0 1.411-0.222 1.77-0.667s0.544-1.085 0.554-1.92v-19.36zM4.571 4.214c-0.601 0-1.112-0.207-1.534-0.618-0.39-0.365-0.633-0.884-0.633-1.459 0-0.008 0-0.016 0-0.024v0.001c0-0.584 0.211-1.083 0.633-1.496 0.421-0.413 0.933-0.618 1.533-0.618 0.591 0 1.098 0.205 1.519 0.618 0.433 0.413 0.648 0.911 0.648 1.497 0 0.574-0.216 1.068-0.648 1.48-0.421 0.411-0.926 0.618-1.517 0.618z"></path>
</symbol>

<symbol id="error" viewBox="0 0 24 24">
    <path d="M6.81 0.219C6.95056 0.0787966 7.14097 4.21785e-05 7.3395 0L16.6605 0C16.859 4.21785e-05 17.0494 0.0787966 17.19 0.219L23.781 6.81C23.9212 6.95056 24 7.14097 24 7.3395V16.6605C24 16.859 23.9212 17.0494 23.781 17.19L17.19 23.781C17.0494 23.9212 16.859 24 16.6605 24H7.3395C7.14097 24 6.95056 23.9212 6.81 23.781L0.219 17.19C0.0787966 17.0494 4.21785e-05 16.859 0 16.6605L0 7.3395C4.21785e-05 7.14097 0.0787966 6.95056 0.219 6.81L6.81 0.219ZM7.65 1.5L1.5 7.65V16.35L7.65 22.5H16.35L22.5 16.35V7.65L16.35 1.5H7.65Z" fill="#FAFAFB"/>
    <path d="M6.969 6.969C7.03867 6.89915 7.12143 6.84374 7.21255 6.80593C7.30366 6.76812 7.40135 6.74866 7.5 6.74866C7.59865 6.74866 7.69633 6.76812 7.78745 6.80593C7.87857 6.84374 7.96133 6.89915 8.031 6.969L12 10.9395L15.969 6.969C16.0387 6.89927 16.1215 6.84395 16.2126 6.80621C16.3037 6.76847 16.4014 6.74905 16.5 6.74905C16.5986 6.74905 16.6963 6.76847 16.7874 6.80621C16.8785 6.84395 16.9613 6.89927 17.031 6.969C17.1007 7.03873 17.156 7.12151 17.1938 7.21262C17.2315 7.30373 17.2509 7.40138 17.2509 7.5C17.2509 7.59861 17.2315 7.69626 17.1938 7.78737C17.156 7.87848 17.1007 7.96127 17.031 8.031L13.0605 12L17.031 15.969C17.1007 16.0387 17.156 16.1215 17.1938 16.2126C17.2315 16.3037 17.2509 16.4014 17.2509 16.5C17.2509 16.5986 17.2315 16.6963 17.1938 16.7874C17.156 16.8785 17.1007 16.9613 17.031 17.031C16.9613 17.1007 16.8785 17.156 16.7874 17.1938C16.6963 17.2315 16.5986 17.2509 16.5 17.2509C16.4014 17.2509 16.3037 17.2315 16.2126 17.1938C16.1215 17.156 16.0387 17.1007 15.969 17.031L12 13.0605L8.031 17.031C7.96127 17.1007 7.87848 17.156 7.78737 17.1938C7.69626 17.2315 7.59861 17.2509 7.5 17.2509C7.40138 17.2509 7.30373 17.2315 7.21262 17.1938C7.12151 17.156 7.03873 17.1007 6.969 17.031C6.89927 16.9613 6.84395 16.8785 6.80621 16.7874C6.76847 16.6963 6.74905 16.5986 6.74905 16.5C6.74905 16.4014 6.76847 16.3037 6.80621 16.2126C6.84395 16.1215 6.89927 16.0387 6.969 15.969L10.9395 12L6.969 8.031C6.89915 7.96133 6.84374 7.87857 6.80593 7.78745C6.76812 7.69633 6.74866 7.59865 6.74866 7.5C6.74866 7.40135 6.76812 7.30366 6.80593 7.21255C6.84374 7.12143 6.89915 7.03867 6.969 6.969Z" fill="#FAFAFB"/>
</symbol>

</defs>
</svg>